<svg width="50" height="50" viewBox="0 0 50 50" fill="none" xmlns="http://www.w3.org/2000/svg">
<path fill-rule="evenodd" clip-rule="evenodd" d="M6.77087 25C6.77087 14.9323 14.9323 6.77083 25 6.77083C35.0677 6.77083 43.2292 14.9323 43.2292 25C43.2292 35.0677 35.0677 43.2292 25 43.2292C14.9323 43.2292 6.77087 35.0677 6.77087 25ZM22.6038 19.3932C20.6589 20.9933 19.3595 23.2439 18.9463 25.7283L17.5781 33.9535C17.2623 35.8524 19.4703 37.1271 20.9568 35.9041L27.396 30.6067C29.3409 29.0066 30.6403 26.7561 31.0535 24.2717L32.4217 16.0465C32.7375 14.1476 30.5296 12.8728 29.043 14.0958L22.6038 19.3932Z" fill="white"/>
<path d="M21.875 25C21.875 23.2741 23.2742 21.875 25 21.875C26.7259 21.875 28.125 23.2741 28.125 25C28.125 26.7259 26.7259 28.125 25 28.125C23.2742 28.125 21.875 26.7259 21.875 25Z" fill="white"/>
</svg>
