<svg width="50" height="50" viewBox="0 0 50 50" fill="none" xmlns="http://www.w3.org/2000/svg">
<path d="M18.2292 25C18.2292 21.2606 21.2606 18.2292 25 18.2292C28.7394 18.2292 31.7708 21.2606 31.7708 25C31.7708 28.7394 28.7394 31.7708 25 31.7708C21.2606 31.7708 18.2292 28.7394 18.2292 25Z" fill="white"/>
<path fill-rule="evenodd" clip-rule="evenodd" d="M23.8765 3.83023C24.4907 3.19473 25.5093 3.19473 26.1235 3.83023L31.4825 9.375H39.0625C39.9255 9.375 40.625 10.0746 40.625 10.9375V18.5175L46.1698 23.8765C46.8053 24.4907 46.8053 25.5093 46.1698 26.1235L40.625 31.4825V39.0625C40.625 39.9254 39.9255 40.625 39.0625 40.625H31.4825L26.1235 46.1698C25.5093 46.8053 24.4907 46.8053 23.8765 46.1698L18.5175 40.625H10.9375C10.0746 40.625 9.37503 39.9254 9.37503 39.0625V31.4825L3.83026 26.1235C3.19476 25.5093 3.19476 24.4907 3.83026 23.8765L9.37503 18.5175V10.9375C9.37503 10.0746 10.0746 9.375 10.9375 9.375H18.5175L23.8765 3.83023ZM25 15.1042C19.5347 15.1042 15.1042 19.5347 15.1042 25C15.1042 30.4653 19.5347 34.8958 25 34.8958C30.4653 34.8958 34.8958 30.4653 34.8958 25C34.8958 19.5347 30.4653 15.1042 25 15.1042Z" fill="white"/>
</svg>
